<svg width="173" height="146" viewBox="0 0 173 146" fill="none" xmlns="http://www.w3.org/2000/svg">
<g opacity="0.8">
<circle cx="92.8054" cy="29.1855" r="11.2556" transform="rotate(0.23552 92.8054 29.1855)" stroke="#1F1111"/>
<path d="M103.685 32.4979L107.315 32.5128L107.274 42.6791C107.262 45.5837 103.623 47.5052 101.808 47.3767L81.4755 47.2931C78.8614 47.2824 77.0035 45.8224 76.4014 45.0938L76.4208 40.3737L89.8547 40.429C97.1708 40.3417 101.119 38.2967 103.685 32.4979Z" stroke="#1F1111" stroke-linejoin="round"/>
<path d="M81.5646 25.5137L76.4815 25.4928L76.5233 15.3265C76.5352 12.4219 80.174 10.5004 81.9889 10.6289L103.774 10.7184C106.388 10.7292 107.404 10.7334 107.395 12.9118L107.387 15.0551C107.382 16.0974 106.578 16.9616 105.539 17.0411L98.2991 17.5946L94.6683 17.5796C87.3522 17.6669 84.13 19.7148 81.5646 25.5137Z" stroke="#1F1111" stroke-linejoin="round"/>
<path d="M76.7053 45.042C70.9592 43.9821 66.6918 57.762 67.1455 73.1352C67.5991 88.5085 71.9645 100.853 76.8957 100.707C81.827 100.562 85.4568 87.9815 85.0032 72.6083C84.9065 69.3307 84.6319 66.1908 84.212 63.2802" stroke="#1F1111"/>
<path d="M76.4208 40.3735C69.5222 40.3453 65.0764 55.2715 65.6047 73.1753C66.1331 91.079 71.3596 105.451 77.2786 105.277C83.1975 105.102 87.5675 90.4465 87.0392 72.5427C86.9202 68.5104 86.5629 64.6572 86.013 61.1089L83.9519 63.1531" stroke="#1F1111" stroke-linejoin="round"/>
<path d="M77.2576 13.4308C76.4777 13.1529 74.2032 13.418 71.8035 15.302C63.0612 22.1647 56.8838 42.835 57.7666 72.7492C58.7305 105.416 67.9601 131.648 78.3814 131.34C84.1298 131.171 89.0401 122.961 92.126 110.151" stroke="#1F1111"/>
<path d="M76.4819 25.4872C69.1785 35.6236 65.2024 52.9714 65.7672 72.1121C66.3364 91.402 70.6752 113.356 81.9045 119.548" stroke="#1F1111"/>
<path d="M76.4864 24.3976C65.9661 22.1763 60.5017 50.8377 61.1258 71.9873C61.6974 91.3554 65.5857 114.762 75.7278 120.613C77.4182 121.588 81.168 122.087 84.4566 117.018C87.6378 112.114 88.7348 106.748 89.2274 104.692" stroke="#1F1111"/>
<path d="M83.6604 134.08C90.5589 134.108 94.3999 134.304 98.1836 134.139C105.81 133.808 111.504 132.258 111.99 132.018C113.566 131.177 117.158 128.844 118.912 126.237C122.565 120.806 123.555 115.484 124.781 111.737" stroke="#1F1111" stroke-linejoin="round"/>
<path d="M79.8667 47.2863C75.6599 48.7214 72.5459 59.0949 72.9412 72.4927C73.3366 85.8904 76.3465 96.6721 79.6641 96.5742C81.2725 96.5808 82.0043 95.2225 83.107 91.9592" stroke="#1F1111"/>
<path d="M101.705 47.2008C97.8096 48.4495 95.2442 54.2484 95.2173 60.7838" stroke="#1F1111"/>
<path d="M103.709 47.2091C101.237 47.2002 99.0796 52.7398 98.0298 60.7952" stroke="#1F1111"/>
<circle cx="107.078" cy="90.2427" r="10.7556" transform="rotate(0.23552 107.078 90.2427)" stroke="#1F1111"/>
<path d="M118.561 89.9267C118.536 96.0392 113.241 101.024 106.671 100.997C100.1 100.97 94.8465 95.9418 94.8717 89.8293C94.8968 83.7169 100.191 78.7325 106.762 78.7595C113.333 78.7865 118.586 83.8142 118.561 89.9267Z" stroke="#1F1111"/>
<path d="M111.723 108.424C109.469 105.967 106.086 104.399 102.299 104.383C100.487 104.376 98.765 104.725 97.2122 105.358" stroke="#1F1111"/>
<path d="M95.0395 103.99L89.5903 104.694C89.5883 105.178 90.0167 106.947 91.7464 110.149C93.476 113.352 97.0561 113.923 98.63 113.808C104.683 113.47 117.733 112.725 121.51 112.45C126.231 112.107 124.784 111.011 124.063 109.556C123.487 108.392 121.406 108.335 120.437 108.452L105.188 108.389C100.831 108.371 96.6078 105.207 95.0395 103.99Z" stroke="#1F1111" stroke-linejoin="round"/>
<path d="M70.9595 43.9822C72.0321 39.7657 74.2728 35.2795 78.9876 34.2119L79.001 30.9442C77.7907 30.9392 74.5646 32.5961 72.8122 34.9127C70.9869 37.3257 69.5236 39.9823 68.418 43.9717" stroke="#1F1111" stroke-linejoin="round"/>
<path d="M80.7924 36.761L78.9875 34.2119L79.0009 30.9442L80.8208 29.8624C81.2616 32.9486 82.0172 34.9153 84.4232 36.7759L80.7924 36.761Z" stroke="#1F1111" stroke-linejoin="round"/>
<path d="M80.438 36.6458C78.3755 37.2984 76.9315 38.7502 76.4215 40.6294" stroke="#1F1111" stroke-linejoin="round"/>
<path d="M81.4692 29.1501C77.9671 29.6357 74.4548 32.6213 71.9405 36.111" stroke="#1F1111" stroke-linejoin="round"/>
<path d="M83.6973 36.7728C81.6342 37.5907 80.732 38.4783 79.3254 40.3857" stroke="#1F1111" stroke-linejoin="round"/>
<path d="M105.162 26.3314C105.167 25.1695 104.199 25.1171 103.714 25.2361C104.011 28.5647 103.909 29.0191 103.69 31.0454L105.146 30.3252L105.162 26.3314Z" stroke="#1F1111" stroke-linejoin="round"/>
<path d="M86.1384 61.1098L101.751 61.1739C102.719 61.1779 105.31 61.0433 107.926 60.4731C110.543 59.903 113.622 58.5601 114.835 57.9599M114.835 57.9599C115.07 59.6553 115.539 63.4817 115.531 65.2245C115.524 66.9673 115.501 72.7282 115.49 75.3908M114.835 57.9599L120.281 57.9823C120.632 60.8885 121.695 67.4284 121.644 79.7731C121.598 91.1012 117.551 103.962 115.717 108.432" stroke="#1F1111" stroke-linejoin="round"/>
<path d="M121.659 76.1422L92.9743 76.3874C92.8373 80.2597 92.3402 89.3106 91.4473 94.5354C90.3312 101.066 86.6422 115.212 79.0235 113.728C73.8344 112.717 71.7962 105.347 70.3588 101.71C69.2089 98.801 68.6874 96.1362 68.5703 95.1675" stroke="#1F1111" stroke-linejoin="round"/>
<path d="M72.5361 102.082C73.9769 104.872 76.134 110.085 80.1279 110.102C83.8306 110.117 87.772 105.413 89.6217 97.0695C91.1015 90.3948 91.7493 80.0132 91.8882 75.6567L118.393 75.7657L121.298 75.7776" stroke="#1F1111" stroke-linejoin="round"/>
<path d="M77.2426 105.369L86.6842 105.045" stroke="#1F1111" stroke-linejoin="round"/>
<line x1="76.791" y1="49.687" x2="98.791" y2="49.687" stroke="#1F1111"/>
<line x1="75.791" y1="51.687" x2="96.791" y2="51.687" stroke="#1F1111"/>
<line x1="74.791" y1="54.687" x2="95.791" y2="54.687" stroke="#1F1111"/>
<line x1="73.791" y1="57.687" x2="95.791" y2="57.687" stroke="#1F1111"/>
<line x1="72.791" y1="65.687" x2="84.791" y2="65.687" stroke="#1F1111"/>
<line x1="72.791" y1="72.687" x2="84.791" y2="72.687" stroke="#1F1111"/>
<line x1="72.791" y1="78.687" x2="84.791" y2="78.687" stroke="#1F1111"/>
<line x1="73.791" y1="81.687" x2="84.791" y2="81.687" stroke="#1F1111"/>
<line x1="73.791" y1="84.687" x2="84.791" y2="84.687" stroke="#1F1111"/>
<line x1="74.791" y1="87.687" x2="83.791" y2="87.687" stroke="#1F1111"/>
<line x1="75.791" y1="90.687" x2="83.791" y2="90.687" stroke="#1F1111"/>
<line x1="76.791" y1="93.687" x2="82.791" y2="93.687" stroke="#1F1111"/>
<line x1="86.791" y1="132.687" x2="109.791" y2="132.687" stroke="#1F1111"/>
<line x1="53.0352" y1="131.545" x2="75.0352" y2="131.545" stroke="#1F1111" stroke-linecap="round" stroke-dasharray="2 2"/>
<line x1="50.0352" y1="128.545" x2="72.0352" y2="128.545" stroke="#1F1111" stroke-linecap="round" stroke-dasharray="2 2"/>
<line x1="47.0352" y1="125.545" x2="69.0352" y2="125.545" stroke="#1F1111" stroke-linecap="round" stroke-dasharray="2 2"/>
<line x1="45.0352" y1="122.545" x2="67.0352" y2="122.545" stroke="#1F1111" stroke-linecap="round" stroke-dasharray="2 2"/>
<line x1="89.791" y1="130.687" x2="113.791" y2="130.687" stroke="#1F1111"/>
<line x1="58.0352" y1="134.545" x2="81.0352" y2="134.545" stroke="#1F1111" stroke-linecap="round" stroke-dasharray="2 2"/>
<line x1="90.791" y1="128.687" x2="116.791" y2="128.687" stroke="#1F1111"/>
<line x1="92.791" y1="126.687" x2="118.791" y2="126.687" stroke="#1F1111"/>
<line x1="94.791" y1="123.687" x2="120.791" y2="123.687" stroke="#1F1111"/>
<line x1="95.5167" y1="120.546" x2="122.517" y2="119.546" stroke="#1F1111"/>
<line x1="97.7718" y1="116.687" x2="123.772" y2="115.687" stroke="#1F1111"/>
<path d="M81.6262 10.6219C74.0014 10.5906 68.5328 16.0144 64.1326 26.5256M98.4292 113.444C94.6346 126.065 88.8486 134.094 82.156 134.292C78.2233 134.408 74.4436 131.806 71.0755 127.129" stroke="#1F1111"/>
</g>
</svg>
